<svg width="18" height="20" viewBox="0 0 18 20" fill="none" xmlns="http://www.w3.org/2000/svg">
<path d="M10.5895 18.998C12.9861 16.8888 17.25 12.5795 17.25 8.625C17.25 6.43696 16.3808 4.33854 14.8336 2.79137C13.2865 1.24419 11.188 0.375 9 0.375C6.81196 0.375 4.71354 1.24419 3.16637 2.79137C1.61919 4.33854 0.75 6.43696 0.75 8.625C0.75 12.5795 5.0125 16.8888 7.4105 18.998C7.84791 19.3884 8.4137 19.6042 9 19.6042C9.5863 19.6042 10.1521 19.3884 10.5895 18.998ZM6.25 8.625C6.25 7.89566 6.53973 7.19618 7.05546 6.68046C7.57118 6.16473 8.27065 5.875 9 5.875C9.72935 5.875 10.4288 6.16473 10.9445 6.68046C11.4603 7.19618 11.75 7.89566 11.75 8.625C11.75 9.35435 11.4603 10.0538 10.9445 10.5695C10.4288 11.0853 9.72935 11.375 9 11.375C8.27065 11.375 7.57118 11.0853 7.05546 10.5695C6.53973 10.0538 6.25 9.35435 6.25 8.625Z" fill="white"/>
</svg>
