<svg width="31" height="15" viewBox="0 0 31 15" fill="none" xmlns="http://www.w3.org/2000/svg">
<path d="M1 4.47845L5.39363 1.11726C5.77166 0.828063 6.30113 0.845381 6.65945 1.15866L9.84055 3.93991C10.1989 4.25319 10.7283 4.27051 11.1064 3.98131L14.8502 1.11726C15.2282 0.828063 15.7577 0.845381 16.116 1.15866L19.2971 3.93991C19.6554 4.25319 20.1849 4.27051 20.5629 3.98131L24.3726 1.06686C24.72 0.801083 25.1998 0.791941 25.5571 1.04429L30 4.18232" stroke="#ECEDC5" stroke-width="1.5" stroke-linecap="round"/>
<path d="M1 13.3803L5.39363 10.0191C5.77166 9.72992 6.30113 9.74724 6.65945 10.0605L9.84055 12.8418C10.1989 13.155 10.7283 13.1724 11.1064 12.8832L14.8502 10.0191C15.2282 9.72992 15.7577 9.74724 16.116 10.0605L19.2971 12.8418C19.6554 13.155 20.1849 13.1724 20.5629 12.8832L24.3726 9.96871C24.72 9.70294 25.1998 9.6938 25.5571 9.94614L30 13.0842" stroke="#ECEDC5" stroke-width="1.5" stroke-linecap="round"/>
</svg>
