<svg width="22" height="22" viewBox="0 0 22 22" fill="none" xmlns="http://www.w3.org/2000/svg">
<g clip-path="url(#clip0_4008_9631)">
<path d="M11 0.257812C5.06726 0.257812 0.257812 5.06726 0.257812 11C0.257812 16.9327 5.06726 21.7422 11 21.7422C16.9327 21.7422 21.7422 16.9327 21.7422 11C21.7422 5.06726 16.9327 0.257812 11 0.257812ZM11.1388 17.498C9.93597 17.498 8.82578 17.1766 7.8543 16.6714L4.06089 17.8654L5.30991 14.2836C4.70856 13.2733 4.33847 12.0793 4.33847 10.8396C4.33847 7.11997 7.39166 4.13514 11.1388 4.13514C14.8859 4.08921 17.9391 7.0742 17.9391 10.7936C17.9391 14.513 14.8859 17.498 11.1388 17.498Z" fill="#1F2B20"/>
<path d="M11.1387 5.14551C7.99297 5.14551 5.40234 7.67113 5.40234 10.7938C5.40213 11.9874 5.79202 13.1484 6.51266 14.1L5.81871 16.2124L8.03925 15.5236C8.97608 16.1294 10.0694 16.4486 11.185 16.442C14.3307 16.442 16.9213 13.9163 16.9213 10.7938C16.875 7.67113 14.2844 5.14551 11.1387 5.14551ZM14.5369 12.757L14.4675 13.0884C14.4281 13.2744 14.3524 13.4508 14.2447 13.6074C14.1369 13.764 13.9993 13.8978 13.8397 14.001C13.4284 14.2593 12.9002 14.3885 12.2248 14.1991C10.1337 13.6093 8.95173 12.2318 8.31528 11.3708C7.67883 10.5099 7.4321 9.64889 7.59229 8.94738C7.70053 8.47816 8.04686 8.11224 8.26333 7.92713C8.37067 7.83665 8.5085 7.79054 8.64868 7.79823L9.09461 7.82401C9.13776 7.82671 9.1793 7.84145 9.2145 7.86656C9.2497 7.89167 9.27716 7.92614 9.29377 7.96606L9.94315 9.48131C9.95969 9.52115 9.9648 9.56481 9.95792 9.6074C9.95103 9.64998 9.93243 9.68981 9.90418 9.72241L9.33699 10.3724C9.31481 10.3982 9.30089 10.43 9.29706 10.4638C9.29323 10.4976 9.29966 10.5317 9.31551 10.5618C10.0645 11.991 11.424 12.5592 11.8309 12.7013C11.8645 12.7133 11.901 12.7143 11.9352 12.7042C11.9694 12.6942 11.9996 12.6736 12.0214 12.6454L12.6144 11.8792C12.6468 11.8379 12.6922 11.8086 12.7432 11.7962C12.7942 11.7837 12.848 11.7887 12.8958 11.8105L14.4068 12.4992C14.4542 12.5214 14.4928 12.5589 14.5163 12.6056C14.5399 12.6524 14.5471 12.7057 14.5369 12.757Z" fill="#1F2B20"/>
</g>
<defs>
<clipPath id="clip0_4008_9631">
<rect width="22" height="22" fill="white"/>
</clipPath>
</defs>
</svg>
