<svg width="24" height="24" viewBox="0 0 24 24" fill="none" xmlns="http://www.w3.org/2000/svg">
<path d="M12.0004 8.65576C10.1823 8.65576 8.70312 10.1349 8.70312 11.953C8.70312 13.7711 10.1823 15.2502 12.0004 15.2502C13.8184 15.2502 15.2975 13.7711 15.2975 11.953C15.2975 10.1349 13.8184 8.65576 12.0004 8.65576ZM12.0004 13.8412C10.9592 13.8412 10.1121 12.9941 10.1121 11.953C10.1121 10.9119 10.9592 10.0648 12.0004 10.0648C13.0415 10.0648 13.8886 10.9119 13.8886 11.953C13.8886 12.9941 13.0415 13.8412 12.0004 13.8412Z" fill="#EE6531"/>
<path d="M11.9982 0L7.31641 7.31822H16.6799L11.9982 0ZM11.9982 2.613L14.1157 5.92017H9.8807L11.9982 2.613Z" fill="#EE6531"/>
<path d="M11.9982 23.9999L16.68 16.6816H7.31641L11.9982 23.9999ZM11.9982 21.3869L9.8807 18.0797H14.1157L11.9982 21.3869Z" fill="#EE6531"/>
<path d="M16.6836 7.31836V16.6819L24.0019 12.0001L16.6836 7.31836ZM18.0816 9.88266L21.3888 12.0001L18.0817 14.1176V9.88266H18.0816Z" fill="#EE6531"/>
<path d="M0 12.0001L7.31822 16.6819V7.31836L0 12.0001ZM5.92017 14.1176L2.613 12.0001L5.92013 9.88266L5.92017 14.1176Z" fill="#EE6531"/>
</svg>
