<svg width="22" height="22" viewBox="0 0 22 22" fill="none" xmlns="http://www.w3.org/2000/svg">
<path d="M9.94069 9.94069H0V6.0735H6.0735V0H9.94069V9.94069ZM1.28906 8.65163H8.65163V1.28906H7.36257V7.36257H1.28906V8.65163Z" fill="#354836"/>
<path d="M21.9993 9.94069H12.0586V0H15.9258V6.0735H21.9993V9.94069ZM13.3477 8.65163H20.7102V7.36257H14.6367V1.28906H13.3477V8.65163Z" fill="#354836"/>
<path d="M9.94069 21.9998H6.0735V15.9263H0V12.0591H9.94069V21.9998ZM7.36257 20.7108H8.65163V13.3481H1.28906V14.6372H7.36257V20.7108Z" fill="#354836"/>
<path d="M15.9258 21.9998H12.0586V12.0591H21.9993V15.9263H15.9258V21.9998ZM13.3477 20.7108H14.6367V14.6372H20.7102V13.3481H13.3477V20.7108Z" fill="#354836"/>
</svg>
