<svg width="22" height="22" viewBox="0 0 22 22" fill="none" xmlns="http://www.w3.org/2000/svg">
<path d="M11.4531 13.251C12.5922 13.251 13.5156 12.3276 13.5156 11.1885C13.5156 10.0494 12.5922 9.12598 11.4531 9.12598C10.314 9.12598 9.39062 10.0494 9.39062 11.1885C9.39062 12.3276 10.314 13.251 11.4531 13.251Z" fill="#1F2B20"/>
<path d="M20.636 10.1575C19.6971 8.56355 18.3528 7.24676 16.7398 6.34106C15.1268 5.43536 13.3027 4.97307 11.453 5.00121C9.60339 4.97314 7.7793 5.43546 6.16632 6.34116C4.55334 7.24685 3.20902 8.5636 2.2701 10.1575C2.09302 10.4723 2 10.8275 2 11.1887C2 11.55 2.09302 11.9051 2.2701 12.22C3.20897 13.8139 4.55328 15.1307 6.16627 16.0364C7.77926 16.9421 9.60337 17.4044 11.453 17.3762C13.3027 17.4043 15.1268 16.942 16.7397 16.0363C18.3527 15.1306 19.697 13.8138 20.636 12.22C20.813 11.9051 20.9061 11.55 20.9061 11.1887C20.9061 10.8275 20.813 10.4723 20.636 10.1575ZM11.453 14.6262C10.7732 14.6262 10.1086 14.4246 9.54326 14.0469C8.97797 13.6692 8.53737 13.1323 8.2772 12.5042C8.01702 11.8761 7.94895 11.1849 8.08158 10.5181C8.21422 9.85128 8.54161 9.23878 9.02235 8.75803C9.5031 8.27729 10.1156 7.9499 10.7824 7.81726C11.4492 7.68463 12.1404 7.7527 12.7685 8.01288C13.3966 8.27305 13.9335 8.71365 14.3112 9.27894C14.6889 9.84423 14.8905 10.5088 14.8905 11.1887C14.8894 12.1001 14.5269 12.9738 13.8825 13.6182C13.2381 14.2626 12.3644 14.6251 11.453 14.6262Z" fill="#1F2B20"/>
</svg>
