<svg width="22" height="22" viewBox="0 0 22 22" fill="none" xmlns="http://www.w3.org/2000/svg">
<path d="M16.0408 13.4474C16.6241 12.5113 17.011 11.3274 17.0861 10.1559C17.1337 9.40399 16.959 8.61469 16.5808 7.87247C15.9874 6.70652 14.9681 6.05154 13.9834 5.41871C13.2486 4.94651 12.5541 4.50063 12.0633 3.86365L11.9752 3.7501C11.685 3.37622 11.3573 2.95249 11.3053 2.59661C11.2533 2.23658 10.9126 1.98041 10.5401 2.00118C10.1618 2.0261 9.86876 2.32659 9.86876 2.69078V15.0288C9.26382 14.6771 8.51885 14.461 7.70313 14.461C5.71364 14.461 4.09375 15.7032 4.09375 17.2305C4.09375 18.7579 5.71364 20 7.70313 20C9.69262 20 11.3125 18.7579 11.3125 17.2305V9.16027C12.3968 9.55769 14.1711 10.5699 14.6591 12.9337C14.5682 13.0625 14.4815 13.2009 14.3805 13.3117C14.1163 13.5984 14.1451 14.0359 14.4454 14.288C14.7429 14.5427 15.1991 14.5123 15.4633 14.2256C15.6568 14.0152 15.8286 13.7687 15.9932 13.5111C16.0105 13.4917 16.0264 13.471 16.0408 13.4474Z" fill="#1F2B20"/>
</svg>
