<svg width="22" height="22" viewBox="0 0 22 22" fill="none" xmlns="http://www.w3.org/2000/svg">
<path d="M9.63363 7.99595C9.64119 7.99637 9.71087 8 9.82648 8H9.82659C10.4129 8 12.4253 7.90016 13.7095 6.61601C15.2131 5.11239 15.0952 2.644 15.0894 2.53966C15.0735 2.2507 14.8428 2.02002 14.5539 2.00409C14.5463 2.00367 14.4767 2 14.3611 2C13.7749 2 11.7622 2.0998 10.478 3.38403C8.97442 4.88765 9.09231 7.356 9.09806 7.46034C9.11399 7.7493 9.34472 7.98002 9.63363 7.99595Z" fill="#1F2B20"/>
<path d="M15.1942 16C15.9065 15.1052 16.371 13.9903 16.4774 12.7697H17.2789C18.2796 12.7697 19.0937 11.9241 19.0937 10.8849C19.0937 9.84553 18.2796 9 17.2789 9H15.9826H15.9308H5.61241C5.32597 9 5.09375 9.24117 5.09375 9.53865V12.2311C5.09375 13.6617 5.58493 14.9752 6.40103 16H15.1942V16ZM16.5013 10.0773H17.2789C17.7076 10.0773 18.0564 10.4396 18.0564 10.8849C18.0564 11.3301 17.7076 11.6924 17.2789 11.6924H16.5013V10.0773Z" fill="#1F2B20"/>
<path d="M19.5664 17H2.62109C2.32986 17 2.09375 17.2137 2.09375 17.4774V18.5C2.09375 19.3271 2.83713 20 3.7508 20H18.4367C19.3504 20 20.0938 19.3271 20.0938 18.5V17.4774C20.0938 17.2137 19.8576 17 19.5664 17Z" fill="#1F2B20"/>
</svg>
