<svg width="22" height="22" viewBox="0 0 22 22" fill="none" xmlns="http://www.w3.org/2000/svg">
<path fill-rule="evenodd" clip-rule="evenodd" d="M16.9431 18.1407V18.1388L16.9596 18.0994L19.7087 4.23942V4.19542C19.7087 3.84984 19.5804 3.54826 19.3035 3.36767C19.0606 3.20909 18.781 3.19809 18.5849 3.21276C18.4023 3.22927 18.2221 3.26617 18.0477 3.32276C17.9733 3.34673 17.9 3.37364 17.8277 3.40342L17.8158 3.40801L2.48913 9.42042L2.48455 9.42226C2.43795 9.43817 2.39234 9.45684 2.34796 9.47817C2.23896 9.52715 2.13438 9.58542 2.03538 9.65234C1.8383 9.78801 1.46338 10.107 1.52663 10.613C1.57888 11.0328 1.86763 11.2987 2.06288 11.4371C2.17813 11.5179 2.30203 11.5855 2.4323 11.6388L2.46163 11.6516L2.4708 11.6543L2.47721 11.6571L5.15938 12.56C5.15021 12.7278 5.16671 12.8992 5.21163 13.0688L6.55455 18.1645C6.62791 18.4423 6.78644 18.6901 7.00786 18.8731C7.22928 19.0562 7.50248 19.1653 7.78909 19.1851C8.0757 19.2049 8.36132 19.1345 8.60583 18.9837C8.85035 18.8328 9.04148 18.6092 9.15238 18.3442L11.2497 16.102L14.8513 18.863L14.9026 18.885C15.2299 19.028 15.5351 19.0729 15.8147 19.0353C16.0943 18.9968 16.3161 18.8795 16.483 18.7466C16.6759 18.5901 16.8297 18.3908 16.9321 18.1645L16.9395 18.1489L16.9422 18.1434L16.9431 18.1407ZM6.5408 12.7186C6.52593 12.662 6.52946 12.6022 6.55089 12.5478C6.57232 12.4934 6.61052 12.4473 6.65996 12.4161L15.7542 6.64109C15.7542 6.64109 16.2895 6.31567 16.2703 6.64109C16.2703 6.64109 16.3656 6.69792 16.0787 6.96467C15.8074 7.21859 9.59696 13.2145 8.96813 13.8213C8.93316 13.8553 8.90867 13.8986 8.89755 13.946L7.88371 17.8143L6.5408 12.7186Z" fill="#CDD1C3"/>
</svg>
