<svg width="22" height="22" viewBox="0 0 22 22" fill="none" xmlns="http://www.w3.org/2000/svg">
<path d="M15.125 14.4375H6.875C6.32799 14.4375 5.80339 14.6548 5.41659 15.0416C5.0298 15.4284 4.8125 15.953 4.8125 16.5V19.25C4.8125 19.6147 4.95737 19.9644 5.21523 20.2223C5.47309 20.4801 5.82283 20.625 6.1875 20.625H15.8125C16.1772 20.625 16.5269 20.4801 16.7848 20.2223C17.0426 19.9644 17.1875 19.6147 17.1875 19.25V16.5C17.1875 15.953 16.9702 15.4284 16.5834 15.0416C16.1966 14.6548 15.672 14.4375 15.125 14.4375Z" fill="white"/>
<path d="M15.125 12.3751C15.1239 12.0107 14.9787 11.6616 14.7211 11.404C14.4634 11.1464 14.1143 11.0011 13.75 11.0001H12.5379L14.4224 2.20625C14.4605 2.02792 14.4262 1.84176 14.327 1.68872C14.2279 1.53568 14.072 1.42829 13.8937 1.39018C13.7154 1.35208 13.5292 1.38637 13.3762 1.48552C13.2231 1.58466 13.1157 1.74055 13.0776 1.91887L11.1313 11.0001H10.8377L8.91275 3.94425C8.8648 3.76829 8.74891 3.61859 8.59058 3.52808C8.43225 3.43757 8.24445 3.41367 8.0685 3.46162C7.98138 3.48537 7.89978 3.52604 7.82838 3.58132C7.75697 3.6366 7.69715 3.7054 7.65234 3.78379C7.56183 3.94212 7.53792 4.12992 7.58588 4.30587L9.41256 11.0001H8.25C7.88566 11.0011 7.53656 11.1464 7.27893 11.404C7.0213 11.6616 6.87609 12.0107 6.875 12.3751V13.0626H15.125V12.3751Z" fill="white"/>
</svg>
