<svg width="22" height="22" viewBox="0 0 22 22" fill="none" xmlns="http://www.w3.org/2000/svg">
<path d="M13.7365 8.80469C13.8025 8.80095 13.8685 8.79985 13.934 8.79985C15.892 8.79985 17.5506 10.0868 18.1191 11.8576C19.1498 10.9189 19.8008 9.57051 19.8008 8.06637C19.8008 5.23123 17.502 2.93311 14.6682 2.93311C12.3386 2.93311 10.3735 4.48653 9.74609 6.61283C11.3532 6.68147 12.8305 7.50779 13.7365 8.80469Z" fill="#1F2B20"/>
<path d="M16.866 13.1999C16.866 11.58 15.5532 10.2666 13.9325 10.2666C13.5882 10.2666 13.2621 10.3366 12.955 10.4461C12.4323 9.05817 11.1039 8.06641 9.53248 8.06641C7.50738 8.06641 5.86596 9.70805 5.86596 11.7331C3.84064 11.7331 2.19922 13.3746 2.19922 15.3999C2.19922 17.4252 3.84064 19.0666 5.86596 19.0666H16.866C18.4858 19.0666 19.7992 17.753 19.7992 16.1331C19.7992 14.5133 18.4858 13.1999 16.866 13.1999Z" fill="#1F2B20"/>
</svg>
