<svg width="22" height="22" viewBox="0 0 22 22" fill="none" xmlns="http://www.w3.org/2000/svg">
<path d="M13.97 1.83301H10.4005C8.7835 1.83301 7.502 1.83301 6.50008 1.96867C5.46792 2.10801 4.63283 2.40134 3.97467 3.06226C3.31558 3.72317 3.02317 4.56192 2.88475 5.59776C2.75 6.60426 2.75 7.89034 2.75 9.51376V14.8653C2.75 16.2476 3.59333 17.4319 4.79142 17.9288C4.73 17.0946 4.73 15.9258 4.73 14.9523V10.3598C4.73 9.18559 4.73 8.17267 4.83817 7.36234C4.95458 6.49334 5.21675 5.66101 5.88958 4.98542C6.56242 4.30984 7.392 4.04676 8.25733 3.92942C9.064 3.82126 10.0723 3.82126 11.2429 3.82126H14.0571C15.2268 3.82126 16.2333 3.82126 17.0408 3.92942C16.7988 3.31193 16.3764 2.78166 15.8287 2.40772C15.2809 2.03378 14.6332 1.83351 13.97 1.83301Z" fill="#CDD1C3"/>
<path d="M6.05078 10.4476C6.05078 7.94873 6.05078 6.69932 6.82445 5.9229C7.5972 5.14648 8.84111 5.14648 11.3308 5.14648H13.9708C16.4595 5.14648 17.7044 5.14648 18.478 5.9229C19.2508 6.69932 19.2508 7.94873 19.2508 10.4476V14.8659C19.2508 17.3647 19.2508 18.6142 18.478 19.3906C17.7044 20.167 16.4595 20.167 13.9708 20.167H11.3308C8.84203 20.167 7.5972 20.167 6.82445 19.3906C6.05078 18.6142 6.05078 17.3647 6.05078 14.8659V10.4476Z" fill="#CDD1C3"/>
</svg>
