<svg width="115" height="29" viewBox="0 0 115 29" fill="none" xmlns="http://www.w3.org/2000/svg">
<g clip-path="url(#clip0_5401_4581)">
<path fill-rule="evenodd" clip-rule="evenodd" d="M36.6362 0C33.6778 0 31.2518 2.48384 31.2295 5.53648C31.2001 9.49411 31.1998 9.49429 31.1998 9.49429H27.3743L27.0213 9.85777V12.0494L27.3743 12.4137H31.2327V28.1161L31.5857 28.4796H33.9208L34.2738 28.1161V12.4137H39.0885L39.4406 12.0494V9.85777L39.0885 9.49429H34.2738V6.09574C34.2738 4.34455 35.6544 2.91941 37.3517 2.91941C42.5905 2.91941 42.5908 2.91941 42.5908 2.91941L42.9437 2.55511V0.363481L42.5908 0H36.6362ZM2.49557 1.47623C1.79503 1.47623 1.19774 1.72612 0.720354 2.21971C0.242009 2.71331 0 3.3187 0 4.01729C0 4.71602 0.242165 5.35432 0.719552 5.84791C1.19667 6.34151 1.79342 6.59222 2.49397 6.59222C3.19478 6.59222 3.76014 6.34189 4.23629 5.84957C4.71341 5.35724 4.95585 4.73969 4.95585 4.01812C4.95585 3.29641 4.71341 2.71413 4.23629 2.22054C3.75891 1.72793 3.17219 1.47705 2.49397 1.47705C2.4952 1.47579 2.49557 1.47623 2.49557 1.47623ZM1.32921 9.49429C0.976676 9.85803 0.976249 9.85777 0.976249 9.85777V28.1161L1.32921 28.4796H3.66434L4.0173 28.1161V9.85777L3.66434 9.49429H1.32921ZM14.3814 9.49429C19.0044 9.49429 19.0044 9.49429 19.0044 9.49429C22.0391 9.49429 24.5123 12.0406 24.5169 15.1712C24.5428 28.1145 24.5426 28.1144 24.5426 28.1144L24.1896 28.4796H21.8545L21.5023 28.1161V15.6057C21.5023 13.8459 20.114 12.4137 18.4083 12.4137C14.9749 12.4137 14.975 12.4137 14.975 12.4137C14.1463 12.4137 13.3677 12.7452 12.7835 13.3505C12.1993 13.9545 11.8787 14.7576 11.881 15.6115C11.9081 28.1146 11.9083 28.1144 11.9083 28.1144L11.5554 28.4796H9.22021L8.86726 28.1161V15.1836C8.86726 12.0457 11.3408 9.49429 14.3814 9.49429ZM45.2925 0.424612C45.6454 0.0607256 45.6454 0.0603048 45.6454 0.0603048H47.9806L48.3327 0.424612L48.2982 28.1764L47.9405 28.5407L45.6406 28.5043L45.2925 28.14V0.424612ZM114.647 9.55459C112.134 9.55459 112.135 9.55459 112.135 9.55459L111.799 9.80242L107.553 22.839L107.279 24.2376L106.993 22.8778L106.98 22.8316L102.416 9.79499L102.085 9.55459H99.5012L99.1699 9.79499L94.6039 22.8316L94.3047 24.2401L94.0423 22.8836L94.0303 22.839L89.7836 9.80242L89.4499 9.55459H86.9383L86.5853 9.91807V10.1015L86.6054 10.2221L92.7621 28.2962L93.095 28.5407H95.3948L95.7245 28.3053L100.467 15.4149L100.81 13.9147L101.139 15.3686L101.153 15.4141L105.859 28.3036L106.189 28.5407H108.49L108.822 28.2962L114.98 10.2221L115 10.1015V9.91807L114.647 9.55459ZM83.8611 14.0163C83.8964 14.0855 83.8964 14.0857 83.8964 14.0857C84.3148 14.8682 84.6271 15.7021 84.8245 16.5656C85.0069 17.354 85.0989 18.1902 85.0989 19.0464C85.0989 20.8789 84.6779 22.5791 83.8491 24.0988C83.0192 25.6221 81.8582 26.8487 80.3949 27.7402C79.485 28.2956 78.4929 28.685 77.4469 28.8959C77.106 28.965 76.7615 28.9992 76.4169 28.9992C75.6917 28.9992 74.9678 28.8473 74.2815 28.549C73.1601 28.0604 71.0868 27.2224 69.8078 27.1C69.8 27.099 69.7927 27.0979 69.7861 27.0975C69.7729 27.0962 69.7618 27.0952 69.75 27.0934C69.7359 27.0934 69.7364 27.0934 69.7364 27.0934C69.3368 27.0559 68.9278 27.039 68.5187 27.0438C68.091 27.0377 67.6609 27.0545 67.24 27.0959C67.2246 27.0959 67.224 27.0959 67.224 27.0959C67.2147 27.0963 67.2057 27.0976 67.1967 27.0983C67.1874 27.0993 67.1782 27.1002 67.1686 27.1008C65.8887 27.2245 63.8159 28.061 62.6933 28.5498C62.007 28.8481 61.2824 29 60.5571 29C60.2126 29 59.8687 28.9658 59.5279 28.8967C58.4815 28.6855 57.4896 28.2976 56.5799 27.741C55.1165 26.8496 53.9547 25.6252 53.1249 24.1004C52.2962 22.5809 51.8767 20.8798 51.8767 19.0472C51.8767 17.2145 52.2962 15.5145 53.1249 13.9948C53.9547 12.4715 55.1165 11.2457 56.5799 10.3543C57.4909 9.79891 58.4815 9.40878 59.5279 9.19772C60.5869 8.98427 61.6813 9.10551 62.6933 9.54468C63.8147 10.0335 65.8893 10.872 67.167 10.9945C67.194 10.9967 67.2088 10.9977 67.224 11.0003C67.2382 11.0003 67.2384 11.0003 67.2384 11.0003C67.6379 11.0378 68.0471 11.0536 68.4561 11.0498C68.885 11.0559 69.3152 11.0378 69.7348 10.9978C69.749 10.9978 69.7492 10.9978 69.7492 10.9978C69.7602 10.9978 69.7711 10.9966 69.7813 10.9953C69.7864 10.9947 69.7908 10.9948 69.7958 10.9945C71.0851 10.8694 73.1589 10.0327 74.2815 9.54385C75.2935 9.10355 76.3877 8.98344 77.4469 9.19689C78.4929 9.40795 79.485 9.7957 80.3949 10.3526C81.8582 11.2438 83.0207 12.4697 83.8491 13.994C83.8609 14.017 83.8611 14.0163 83.8611 14.0163ZM58.1241 25.238C59.4677 26.0869 61.1531 26.1645 62.6307 25.4453C64.4362 24.5658 66.4452 24.1112 68.4457 24.1294C70.4734 24.0976 72.5112 24.5545 74.3401 25.4461C75.8176 26.1652 77.5033 26.0881 78.8491 25.238C78.8787 25.2198 78.8788 25.2198 78.8788 25.2198C79.8707 24.5879 80.6503 23.7198 81.1931 22.6416C81.4576 22.1175 81.6621 21.5609 81.7995 20.9861C81.9466 20.3711 82.0201 19.7179 82.0201 19.0472C82.0201 18.2445 81.9149 17.4731 81.7057 16.7565C81.5752 16.3077 81.4036 15.8702 81.1931 15.4554C80.649 14.376 79.8707 13.5074 78.8788 12.8755C78.8469 12.856 78.8467 12.8557 78.8467 12.8557C77.5033 12.0068 75.8176 11.9291 74.3401 12.6483C72.5346 13.5278 70.5256 13.9819 68.5251 13.9659C66.4974 13.9961 64.4598 13.5398 62.6307 12.6483C61.1531 11.9291 59.4677 12.0072 58.1217 12.8573C58.0924 12.8755 58.0928 12.8755 58.0928 12.8755C57.1005 13.5074 56.3219 14.3756 55.7777 15.4537C55.229 16.5393 54.9507 17.7488 54.9507 19.0464C54.9507 20.344 55.229 21.5535 55.7777 22.6391C56.3219 23.7185 57.1005 24.585 58.0928 25.2181C58.1246 25.2376 58.1241 25.238 58.1241 25.238Z" fill="#646A54"/>
</g>
<defs>
<clipPath id="clip0_5401_4581">
<rect width="115" height="29" fill="white"/>
</clipPath>
</defs>
</svg>
