<svg width="22" height="22" viewBox="0 0 22 22" fill="none" xmlns="http://www.w3.org/2000/svg">
<mask id="mask0_5401_4637" style="mask-type:luminance" maskUnits="userSpaceOnUse" x="2" y="2" width="18" height="18">
<path d="M2.29297 2.29199H19.7096V19.7087H2.29297V2.29199Z" fill="white"/>
</mask>
<g mask="url(#mask0_5401_4637)">
<path d="M12.6421 2.41998L12.1196 2.34664C10.5493 2.11991 8.94691 2.34422 7.49921 2.99341C6.05151 3.6426 4.81817 4.68994 3.94297 6.01331C3.01178 7.27829 2.45667 8.78049 2.34153 10.347C2.22639 11.9136 2.5559 13.4808 3.29214 14.8683C3.36748 15.0074 3.41439 15.16 3.43013 15.3174C3.44587 15.4748 3.43012 15.6337 3.3838 15.785C3.00797 17.0775 2.65964 18.3791 2.29297 19.745L2.7513 19.6075C3.9888 19.2775 5.2263 18.9475 6.4638 18.645C6.725 18.5907 6.99649 18.6162 7.24297 18.7183C8.35323 19.2602 9.56656 19.5583 10.8015 19.5926C12.0365 19.627 13.2645 19.3968 14.4032 18.9174C15.5418 18.4381 16.5648 17.7208 17.4034 16.8136C18.242 15.9064 18.8769 14.8303 19.2654 13.6575C19.6539 12.4848 19.787 11.2425 19.6559 10.014C19.5248 8.78556 19.1324 7.59936 18.5051 6.53504C17.8778 5.47071 17.0301 4.55287 16.0189 3.84312C15.0077 3.13338 13.8563 2.64814 12.6421 2.41998ZM14.9521 14.4466C14.619 14.7449 14.2127 14.9496 13.7747 15.0397C13.3367 15.1299 12.8827 15.1024 12.4588 14.96C10.538 14.4191 8.87153 13.2139 7.7563 11.5591C7.33031 10.9739 6.98786 10.3322 6.7388 9.65248C6.60392 9.2581 6.57959 8.83432 6.66847 8.42711C6.75735 8.01989 6.95603 7.64478 7.24297 7.34248C7.38266 7.1642 7.5728 7.03212 7.78862 6.96345C8.00444 6.89478 8.23595 6.8927 8.45297 6.95748C8.6363 7.00331 8.76464 7.26914 8.92964 7.47081C9.06347 7.84939 9.22022 8.21973 9.39714 8.57998C9.53136 8.76377 9.58741 8.99321 9.55307 9.21819C9.51872 9.44318 9.39675 9.64543 9.2138 9.78081C8.8013 10.1475 8.86547 10.45 9.1588 10.8625C9.8073 11.7967 10.7021 12.5329 11.7438 12.9891C12.0371 13.1175 12.2571 13.145 12.4496 12.8425C12.5321 12.7233 12.6421 12.6225 12.7338 12.5125C13.2655 11.8433 13.1005 11.8525 13.9438 12.2191C14.2124 12.3319 14.4727 12.4639 14.723 12.6133C14.9705 12.76 15.3463 12.9158 15.4013 13.1358C15.4542 13.3745 15.4403 13.6231 15.361 13.8544C15.2818 14.0857 15.1403 14.2906 14.9521 14.4466Z" fill="#CDD1C3"/>
</g>
</svg>
