<svg width="46" height="32" viewBox="0 0 46 32" fill="none" xmlns="http://www.w3.org/2000/svg">
<path d="M23.0026 9.75C21.345 9.75 19.7553 10.4085 18.5832 11.5806C17.4111 12.7527 16.7526 14.3424 16.7526 16C16.7526 17.6576 17.4111 19.2473 18.5832 20.4194C19.7553 21.5915 21.345 22.25 23.0026 22.25C24.6602 22.25 26.2499 21.5915 27.422 20.4194C28.5941 19.2473 29.2526 17.6576 29.2526 16C29.2526 14.3424 28.5941 12.7527 27.422 11.5806C26.2499 10.4085 24.6602 9.75 23.0026 9.75ZM23.0026 26.4167C20.2399 26.4167 17.5904 25.3192 15.6369 23.3657C13.6834 21.4122 12.5859 18.7627 12.5859 16C12.5859 13.2373 13.6834 10.5878 15.6369 8.6343C17.5904 6.6808 20.2399 5.58333 23.0026 5.58333C25.7653 5.58333 28.4148 6.6808 30.3683 8.6343C32.3218 10.5878 33.4193 13.2373 33.4193 16C33.4193 18.7627 32.3218 21.4122 30.3683 23.3657C28.4148 25.3192 25.7653 26.4167 23.0026 26.4167ZM23.0026 0.375C12.5859 0.375 3.6901 6.85417 0.0859375 16C3.6901 25.1458 12.5859 31.625 23.0026 31.625C33.4193 31.625 42.3151 25.1458 45.9193 16C42.3151 6.85417 33.4193 0.375 23.0026 0.375Z" fill="#EE6531"/>
</svg>
