<svg width="22" height="22" viewBox="0 0 22 22" fill="none" xmlns="http://www.w3.org/2000/svg">
<path d="M19.7794 6.28376C19.9078 5.85751 19.7794 5.54492 19.1726 5.54492H17.1624C16.6509 5.54492 16.4171 5.81534 16.2888 6.11234C16.2888 6.11234 15.2667 8.60475 13.8184 10.2208C13.3509 10.6911 13.1373 10.8396 12.8824 10.8396C12.755 10.8396 12.5699 10.6911 12.5699 10.2648V6.28376C12.5699 5.77226 12.4223 5.54492 11.996 5.54492H8.8372C8.5182 5.54492 8.3257 5.78142 8.3257 6.00692C8.3257 6.49092 9.04986 6.60276 9.12411 7.96676V10.9258C9.12411 11.5738 9.0077 11.6921 8.75103 11.6921C8.06995 11.6921 6.41261 9.19051 5.42903 6.32684C5.23745 5.77042 5.04403 5.54584 4.5307 5.54584H2.52136C1.94661 5.54584 1.83203 5.81626 1.83203 6.11326C1.83203 6.64676 2.51311 9.28675 5.00461 12.7783C6.66561 15.1626 9.00403 16.4551 11.1344 16.4551C12.4113 16.4551 12.5689 16.1682 12.5689 15.6732V13.871C12.5689 13.2972 12.6909 13.1817 13.0951 13.1817C13.3921 13.1817 13.9036 13.332 15.0962 14.4806C16.4584 15.8428 16.6839 16.4542 17.4493 16.4542H19.4586C20.0324 16.4542 20.3194 16.1673 20.1544 15.6008C19.9738 15.037 19.3229 14.2166 18.4594 13.2458C17.9901 12.6922 17.2889 12.0963 17.0753 11.7984C16.7774 11.4143 16.8635 11.2448 17.0753 10.9038C17.0762 10.9047 19.5246 7.45617 19.7794 6.28376Z" fill="#CDD1C3"/>
</svg>
