<svg width="14" height="16" viewBox="0 0 14 16" fill="none" xmlns="http://www.w3.org/2000/svg">
<path fill-rule="evenodd" clip-rule="evenodd" d="M6.64127 6.10352e-05L3.91458 3.96135L4.99769 5.53488C3.56028 5.18757 2.02262 5.52129 0.912389 6.42856C0.221759 6.99294 -0.109195 7.83529 0.0320891 8.66914L0.436938 11.0585L1.09612 10.6776C2.58059 9.8199 4.03706 9.55958 5.6576 9.97571L3.58352 12.4101L6.64209 16L9.70066 12.4101L7.72459 10.0907C9.32829 9.67832 10.8167 9.87578 12.2359 10.7778L12.6791 11.0595L13.2638 8.75923C13.4862 7.88418 13.168 6.96847 12.4329 6.36771C11.3325 5.46852 9.80428 5.13881 8.37608 5.49248L8.30129 5.511L9.36796 3.96135L6.64127 6.10352e-05ZM4.97458 6.04348L5.4339 6.1686L6.36695 7.52413L6.36696 9.14313L6.01508 9.55613C4.18036 9.02858 2.5201 9.28506 0.848949 10.2338L0.571087 8.59385C0.457758 7.92499 0.723226 7.24931 1.2772 6.79661C2.28041 5.9768 3.68183 5.69134 4.97458 6.04348ZM6.91229 9.13733L7.36695 9.67097C9.12084 9.1681 10.7502 9.32094 12.3282 10.2381L12.7324 8.64789C12.9102 7.94824 12.6558 7.2161 12.0681 6.73576C11.1056 5.94924 9.76882 5.66084 8.51957 5.97019L7.87541 6.12971L6.91229 7.52891V9.13733ZM6.67978 6.93242L7.52494 5.70459L7.52457 5.70334L7.52606 5.70297L8.72487 3.96135L6.64127 0.93433L4.55767 3.96135L6.60275 6.93242H6.67978ZM4.273 12.4101L6.64209 9.62944L9.01119 12.4101L6.64209 15.1907L4.273 12.4101Z" fill="white"/>
</svg>
