<svg width="22" height="24" viewBox="0 0 22 24" fill="none" xmlns="http://www.w3.org/2000/svg">
<mask id="path-1-outside-1_4008_2190" maskUnits="userSpaceOnUse" x="0" y="-1" width="22" height="26" fill="black">
<rect fill="white" y="-1" width="22" height="26"/>
<path fill-rule="evenodd" clip-rule="evenodd" d="M10.9615 0L6.87142 5.94197L8.49587 8.30195C6.33995 7.78125 4.03377 8.28188 2.36859 9.64264C1.33264 10.4892 0.836207 11.7528 1.04813 13.0035L1.65541 16.5876L2.64419 16.0163C4.87098 14.7296 7.05577 14.3392 9.4867 14.9635L6.37532 18.6153L10.9632 24.0002L15.5511 18.6153L12.5868 15.1361C14.9922 14.5176 17.2247 14.8138 19.3534 16.1668L20.0183 16.5894L20.8953 13.1389C21.2289 11.8263 20.7516 10.4528 19.6489 9.55161C17.9984 8.20283 15.706 7.70825 13.5637 8.23876L13.4514 8.26656L15.0515 5.94197L10.9615 0ZM8.46191 9.06503L9.15018 9.25251L10.5495 11.2854V13.716L10.0229 14.3341C7.27071 13.5427 4.78025 13.9274 2.27343 15.3505L1.85663 12.8906C1.68664 11.8873 2.08484 10.8738 2.91581 10.1947C4.42062 8.965 6.52277 8.53681 8.46191 9.06503ZM11.3675 13.705L12.0503 14.5064C14.681 13.7522 17.125 13.9815 19.492 15.3573L20.0982 12.9719C20.3649 11.9224 19.9834 10.8242 19.1017 10.1037C17.658 8.9239 15.6528 8.4913 13.7789 8.95533L12.8126 9.19462L11.3675 11.294V13.705ZM11.0194 10.3984L12.287 8.55688L12.2864 8.55506L12.2886 8.55452L14.0869 5.94197L10.9615 1.40141L7.83605 5.94197L10.9036 10.3984H11.0194ZM7.40954 18.6153L10.9632 14.4443L14.5169 18.6153L10.9632 22.7863L7.40954 18.6153Z"/>
</mask>
<path fill-rule="evenodd" clip-rule="evenodd" d="M10.9615 0L6.87142 5.94197L8.49587 8.30195C6.33995 7.78125 4.03377 8.28188 2.36859 9.64264C1.33264 10.4892 0.836207 11.7528 1.04813 13.0035L1.65541 16.5876L2.64419 16.0163C4.87098 14.7296 7.05577 14.3392 9.4867 14.9635L6.37532 18.6153L10.9632 24.0002L15.5511 18.6153L12.5868 15.1361C14.9922 14.5176 17.2247 14.8138 19.3534 16.1668L20.0183 16.5894L20.8953 13.1389C21.2289 11.8263 20.7516 10.4528 19.6489 9.55161C17.9984 8.20283 15.706 7.70825 13.5637 8.23876L13.4514 8.26656L15.0515 5.94197L10.9615 0ZM8.46191 9.06503L9.15018 9.25251L10.5495 11.2854V13.716L10.0229 14.3341C7.27071 13.5427 4.78025 13.9274 2.27343 15.3505L1.85663 12.8906C1.68664 11.8873 2.08484 10.8738 2.91581 10.1947C4.42062 8.965 6.52277 8.53681 8.46191 9.06503ZM11.3675 13.705L12.0503 14.5064C14.681 13.7522 17.125 13.9815 19.492 15.3573L20.0982 12.9719C20.3649 11.9224 19.9834 10.8242 19.1017 10.1037C17.658 8.9239 15.6528 8.4913 13.7789 8.95533L12.8126 9.19462L11.3675 11.294V13.705ZM11.0194 10.3984L12.287 8.55688L12.2864 8.55506L12.2886 8.55452L14.0869 5.94197L10.9615 1.40141L7.83605 5.94197L10.9036 10.3984H11.0194ZM7.40954 18.6153L10.9632 14.4443L14.5169 18.6153L10.9632 22.7863L7.40954 18.6153Z" fill="#EE6531"/>
<path d="M6.87142 5.94197L6.70667 5.82857L6.62861 5.94197L6.70667 6.05536L6.87142 5.94197ZM10.9615 0L11.1262 -0.113399L10.9615 -0.352737L10.7967 -0.113399L10.9615 0ZM8.49587 8.30195L8.44892 8.49636L8.95695 8.61906L8.66062 8.18855L8.49587 8.30195ZM2.36859 9.64264L2.49515 9.79751L2.49515 9.79751L2.36859 9.64264ZM1.04813 13.0035L0.850944 13.0369L1.04813 13.0035ZM1.65541 16.5876L1.45822 16.621L1.5063 16.9048L1.75547 16.7608L1.65541 16.5876ZM2.64419 16.0163L2.54413 15.8431H2.54413L2.64419 16.0163ZM9.4867 14.9635L9.63894 15.0932L9.84662 14.8494L9.53645 14.7697L9.4867 14.9635ZM6.37532 18.6153L6.22308 18.4856L6.11258 18.6153L6.22308 18.745L6.37532 18.6153ZM10.9632 24.0002L10.811 24.1299L10.9632 24.3086L11.1154 24.1299L10.9632 24.0002ZM15.5511 18.6153L15.7033 18.745L15.8138 18.6153L15.7033 18.4856L15.5511 18.6153ZM12.5868 15.1361L12.537 14.9424L12.2269 15.0221L12.4346 15.2658L12.5868 15.1361ZM19.3534 16.1668L19.4607 15.998L19.3534 16.1668ZM20.0183 16.5894L19.911 16.7582L20.1441 16.9063L20.2122 16.6387L20.0183 16.5894ZM20.8953 13.1389L20.7014 13.0896L20.8953 13.1389ZM19.6489 9.55161L19.7755 9.39675V9.39674L19.6489 9.55161ZM13.5637 8.23876L13.6118 8.4329L13.6118 8.43289L13.5637 8.23876ZM13.4514 8.26656L13.2867 8.15316L12.9878 8.58741L13.4995 8.46069L13.4514 8.26656ZM15.0515 5.94197L15.2163 6.05536L15.2943 5.94197L15.2163 5.82857L15.0515 5.94197ZM9.15018 9.25251L9.31492 9.13911L9.2734 9.07879L9.20274 9.05954L9.15018 9.25251ZM8.46191 9.06503L8.40935 9.258H8.40935L8.46191 9.06503ZM10.5495 11.2854H10.7495V11.2232L10.7142 11.172L10.5495 11.2854ZM10.5495 13.716L10.7017 13.8457L10.7495 13.7897V13.716H10.5495ZM10.0229 14.3341L9.96764 14.5263L10.0915 14.5619L10.1751 14.4638L10.0229 14.3341ZM2.27343 15.3505L2.07624 15.3839L2.12393 15.6653L2.37217 15.5244L2.27343 15.3505ZM1.85663 12.8906L2.05382 12.8572L1.85663 12.8906ZM2.91581 10.1947L2.78926 10.0399L2.91581 10.1947ZM11.3675 13.705H11.1675V13.7787L11.2153 13.8347L11.3675 13.705ZM12.0503 14.5064L11.8981 14.6361L11.9816 14.7342L12.1054 14.6987L12.0503 14.5064ZM19.492 15.3573L19.3914 15.5302L19.6205 15.6634L19.6858 15.4066L19.492 15.3573ZM20.0982 12.9719L19.9044 12.9226L20.0982 12.9719ZM19.1017 10.1037L19.2282 9.94882V9.94882L19.1017 10.1037ZM13.7789 8.95533L13.827 9.14947L13.7789 8.95533ZM12.8126 9.19462L12.7645 9.00049L12.6909 9.01873L12.6479 9.08122L12.8126 9.19462ZM11.3675 11.294L11.2028 11.1806L11.1675 11.2319V11.294H11.3675ZM12.287 8.55688L12.4517 8.67028L12.5061 8.59122L12.4785 8.49931L12.287 8.55688ZM11.0194 10.3984V10.5984H11.1245L11.1841 10.5118L11.0194 10.3984ZM12.2864 8.55506L12.2383 8.36093L12.0344 8.41145L12.0949 8.61263L12.2864 8.55506ZM12.2886 8.55452L12.3367 8.74864L12.4103 8.7304L12.4533 8.66792L12.2886 8.55452ZM14.0869 5.94197L14.2516 6.05537L14.3297 5.94197L14.2516 5.82857L14.0869 5.94197ZM10.9615 1.40141L11.1262 1.28801L10.9615 1.04867L10.7967 1.28801L10.9615 1.40141ZM7.83605 5.94197L7.67131 5.82857L7.59325 5.94197L7.67131 6.05537L7.83605 5.94197ZM10.9036 10.3984L10.7389 10.5118L10.7985 10.5984H10.9036V10.3984ZM10.9632 14.4443L11.1154 14.3146L10.9632 14.136L10.811 14.3146L10.9632 14.4443ZM7.40954 18.6153L7.2573 18.4856L7.14679 18.6153L7.2573 18.745L7.40954 18.6153ZM14.5169 18.6153L14.6691 18.745L14.7796 18.6153L14.6691 18.4856L14.5169 18.6153ZM10.9632 22.7863L10.811 22.916L10.9632 23.0947L11.1154 22.916L10.9632 22.7863ZM7.03616 6.05536L11.1262 0.113399L10.7967 -0.113399L6.70667 5.82857L7.03616 6.05536ZM8.66062 8.18855L7.03616 5.82857L6.70667 6.05536L8.33113 8.41535L8.66062 8.18855ZM2.49515 9.79751C4.10977 8.47805 6.35118 7.98972 8.44892 8.49636L8.54283 8.10754C6.32873 7.57279 3.95776 8.08571 2.24203 9.48778L2.49515 9.79751ZM1.24532 12.9701C1.04619 11.7949 1.51113 10.6016 2.49515 9.79751L2.24203 9.48778C1.15415 10.3768 0.62622 11.7106 0.850944 13.0369L1.24532 12.9701ZM1.8526 16.5542L1.24532 12.9701L0.850944 13.0369L1.45822 16.621L1.8526 16.5542ZM2.54413 15.8431L1.55535 16.4145L1.75547 16.7608L2.74425 16.1895L2.54413 15.8431ZM9.53645 14.7697C7.04878 14.1309 4.81054 14.5336 2.54413 15.8431L2.74425 16.1895C4.93142 14.9257 7.06276 14.5475 9.43695 15.1572L9.53645 14.7697ZM6.52756 18.745L9.63894 15.0932L9.33446 14.8338L6.22308 18.4856L6.52756 18.745ZM11.1154 23.8705L6.52756 18.4856L6.22308 18.745L10.811 24.1299L11.1154 23.8705ZM15.3988 18.4856L10.811 23.8705L11.1154 24.1299L15.7033 18.745L15.3988 18.4856ZM12.4346 15.2658L15.3988 18.745L15.7033 18.4856L12.739 15.0064L12.4346 15.2658ZM19.4607 15.998C17.2827 14.6137 14.9929 14.3109 12.537 14.9424L12.6366 15.3298C14.9916 14.7243 17.1668 15.0139 19.2461 16.3356L19.4607 15.998ZM20.1256 16.4206L19.4607 15.998L19.2461 16.3356L19.911 16.7582L20.1256 16.4206ZM20.7014 13.0896L19.8245 16.5401L20.2122 16.6387L21.0891 13.1882L20.7014 13.0896ZM19.5223 9.70648C20.5689 10.5617 21.0147 11.8572 20.7014 13.0896L21.0891 13.1882C21.4431 11.7954 20.9344 10.3438 19.7755 9.39675L19.5223 9.70648ZM13.6118 8.43289C15.6955 7.9169 17.9226 8.39918 19.5223 9.70648L19.7755 9.39674C18.0742 8.00647 15.7165 7.4996 13.5156 8.04462L13.6118 8.43289ZM13.4995 8.46069L13.6118 8.4329L13.5156 8.04462L13.4034 8.07242L13.4995 8.46069ZM14.8868 5.82857L13.2867 8.15316L13.6162 8.37996L15.2163 6.05536L14.8868 5.82857ZM10.7967 0.113399L14.8868 6.05536L15.2163 5.82857L11.1262 -0.113399L10.7967 0.113399ZM9.20274 9.05954L8.51447 8.87206L8.40935 9.258L9.09761 9.44548L9.20274 9.05954ZM10.7142 11.172L9.31492 9.13911L8.98543 9.36591L10.3848 11.3988L10.7142 11.172ZM10.7495 13.716V11.2854H10.3495V13.716H10.7495ZM10.1751 14.4638L10.7017 13.8457L10.3973 13.5863L9.87067 14.2044L10.1751 14.4638ZM2.37217 15.5244C4.83678 14.1253 7.272 13.7512 9.96764 14.5263L10.0782 14.1419C7.26943 13.3342 4.72372 13.7295 2.17469 15.1766L2.37217 15.5244ZM1.65944 12.924L2.07624 15.3839L2.47062 15.3171L2.05382 12.8572L1.65944 12.924ZM2.78926 10.0399C1.90635 10.7614 1.47665 11.8452 1.65944 12.924L2.05382 12.8572C1.89663 11.9294 2.26334 10.9862 3.04237 10.3496L2.78926 10.0399ZM8.51447 8.87206C6.51551 8.32755 4.3461 8.76761 2.78926 10.0399L3.04237 10.3496C4.49514 9.16239 6.53004 8.74608 8.40935 9.258L8.51447 8.87206ZM11.2153 13.8347L11.8981 14.6361L12.2026 14.3767L11.5197 13.5753L11.2153 13.8347ZM12.1054 14.6987C14.688 13.9583 17.0752 14.1839 19.3914 15.5302L19.5925 15.1844C17.1748 13.7791 14.6741 13.5462 11.9952 14.3142L12.1054 14.6987ZM19.6858 15.4066L20.292 13.0212L19.9044 12.9226L19.2981 15.308L19.6858 15.4066ZM20.292 13.0212C20.5792 11.8915 20.1661 10.7153 19.2282 9.94882L18.9751 10.2586C19.8006 10.9331 20.1507 11.9533 19.9044 12.9226L20.292 13.0212ZM19.2282 9.94882C17.7337 8.72755 15.6633 8.28265 13.7308 8.7612L13.827 9.14947C15.6423 8.69995 17.5822 9.12026 18.9751 10.2586L19.2282 9.94882ZM13.7308 8.7612L12.7645 9.00049L12.8607 9.38876L13.827 9.14947L13.7308 8.7612ZM12.6479 9.08122L11.2028 11.1806L11.5323 11.4074L12.9774 9.30802L12.6479 9.08122ZM11.1675 11.294V13.705H11.5675V11.294H11.1675ZM12.1222 8.44348L10.8546 10.285L11.1841 10.5118L12.4517 8.67028L12.1222 8.44348ZM12.0949 8.61263L12.0954 8.61445L12.4785 8.49931L12.4779 8.49749L12.0949 8.61263ZM12.2405 8.36039L12.2383 8.36093L12.3345 8.74918L12.3367 8.74864L12.2405 8.36039ZM13.9221 5.82857L12.1238 8.44112L12.4533 8.66792L14.2516 6.05537L13.9221 5.82857ZM10.7967 1.51481L13.9221 6.05537L14.2516 5.82857L11.1262 1.28801L10.7967 1.51481ZM8.0008 6.05537L11.1262 1.51481L10.7967 1.28801L7.67131 5.82857L8.0008 6.05537ZM11.0683 10.285L8.0008 5.82857L7.67131 6.05537L10.7389 10.5118L11.0683 10.285ZM10.9036 10.5984H11.0194V10.1984H10.9036V10.5984ZM10.811 14.3146L7.2573 18.4856L7.56177 18.745L11.1154 14.574L10.811 14.3146ZM14.6691 18.4856L11.1154 14.3146L10.811 14.574L14.3646 18.745L14.6691 18.4856ZM11.1154 22.916L14.6691 18.745L14.3646 18.4856L10.811 22.6566L11.1154 22.916ZM7.2573 18.745L10.811 22.916L11.1154 22.6566L7.56177 18.4856L7.2573 18.745Z" fill="#EE6531" mask="url(#path-1-outside-1_4008_2190)"/>
</svg>
