<svg width="24" height="24" viewBox="0 0 24 24" fill="none" xmlns="http://www.w3.org/2000/svg">
<g clip-path="url(#clip0_3974_10656)">
<path d="M21.7567 1.23633H11.5714C10.3344 1.23633 9.32812 2.24264 9.32812 3.47962V5.56856H2.7712C1.24317 5.56852 0 6.81169 0 8.33972V15.7337C0 17.2617 1.24317 18.5049 2.7712 18.5049H2.9198V22.764L9.8092 18.5049H16.4476C17.9756 18.5049 19.2188 17.2617 19.2188 15.7337V12.9323L21.8256 14.5439V11.2284C23.0308 11.1919 24 10.2 24 8.98613V3.47962C24 2.24264 22.9937 1.23633 21.7567 1.23633ZM17.8125 15.7337C17.8125 16.4863 17.2002 17.0986 16.4475 17.0986H9.40959L4.32605 20.2413V17.0986H2.7712C2.01853 17.0986 1.40625 16.4863 1.40625 15.7337V8.33972C1.40625 7.58709 2.01853 6.97477 2.7712 6.97477H9.32812V8.98613C9.32812 9.282 9.38625 9.56442 9.49078 9.82327H5.95312V11.2295L16.4643 11.2294L17.8125 12.0629V15.7337ZM22.5938 8.98613C22.5938 9.44766 22.2182 9.82317 21.7567 9.82317H20.4193V12.0212L16.8638 9.82317H11.5714C11.1099 9.82317 10.7344 9.44766 10.7344 8.98613V3.47962C10.7344 3.01809 11.1099 2.64258 11.5714 2.64258H21.7567C22.2182 2.64258 22.5938 3.01809 22.5938 3.47962V8.98613Z" fill="white"/>
<path d="M5.95312 12.7529H13.6406V14.1592H5.95312V12.7529Z" fill="white"/>
<path d="M13.3828 5.45117H14.7891V6.86525H13.3828V5.45117Z" fill="white"/>
<path d="M15.9609 5.45117H17.3672V6.86525H15.9609V5.45117Z" fill="white"/>
<path d="M18.5391 5.45117H19.9453V6.86525H18.5391V5.45117Z" fill="white"/>
</g>
<defs>
<clipPath id="clip0_3974_10656">
<rect width="24" height="24" fill="white"/>
</clipPath>
</defs>
</svg>
