<svg width="22" height="22" viewBox="0 0 22 22" fill="none" xmlns="http://www.w3.org/2000/svg">
<g clip-path="url(#clip0_4008_838)">
<path d="M18.0977 16.5413L14.586 15.6631L14.3834 14.8518C16.8062 14.4439 18.0528 13.7179 18.1078 13.6858C18.238 13.6097 18.3187 13.4713 18.3297 13.321C18.3398 13.1707 18.2728 13.0231 18.1546 12.9287C18.1381 12.9158 16.5 11.5628 16.5 6.875C16.5 2.9214 15.5751 0.916652 13.75 0.916652H13.4796C12.8214 0.2805 12.3273 0 11 0C9.2776 0 5.5 1.7316 5.5 6.875C5.5 11.5628 3.8619 12.9158 3.85 12.925C3.7281 13.0167 3.65935 13.1624 3.66665 13.3146C3.6749 13.4677 3.7574 13.6052 3.8885 13.684C3.9435 13.717 5.17825 14.4467 7.61565 14.8537L7.41305 15.6631L3.90135 16.5413C1.60415 17.116 0 19.1712 0 21.5417C0 21.7947 0.205348 22 0.458348 22H21.5417C21.7947 22 22 21.7928 22 21.5398C22 19.1712 20.3958 17.116 18.0977 16.5413Z" fill="#1F2B20"/>
</g>
<defs>
<clipPath id="clip0_4008_838">
<rect width="22" height="22" fill="white"/>
</clipPath>
</defs>
</svg>
