<svg width="22" height="22" viewBox="0 0 22 22" fill="none" xmlns="http://www.w3.org/2000/svg">
<g clip-path="url(#clip0_4008_4236)">
<path d="M11.0012 0C8.03283 0 6.0025 2.39551 6.49036 5.32453L7.22899 9.7611C7.52268 11.5192 9.22 12.9569 11.0014 12.9569C12.7837 12.9569 14.4799 11.519 14.7728 9.7611L15.512 5.32453C16.001 2.39551 13.9706 0 11.0012 0Z" fill="#1F2B20"/>
<path d="M20.2606 15.0035L14.8519 13.2003C13.8179 14.1724 12.4496 14.7901 11 14.7901C9.5505 14.7901 8.18206 14.1724 7.14807 13.2003L1.73937 15.0035C0.782353 15.322 0 16.4087 0 17.4166V22H22V17.4166C22 16.4087 21.2176 15.322 20.2606 15.0035Z" fill="#1F2B20"/>
</g>
<defs>
<clipPath id="clip0_4008_4236">
<rect width="22" height="22" fill="white"/>
</clipPath>
</defs>
</svg>
