<svg width="22" height="22" viewBox="0 0 22 22" fill="none" xmlns="http://www.w3.org/2000/svg">
<path d="M8.65471 13.3756C4.18957 13.3756 1.73047 14.9071 1.73047 17.6878C1.73047 20.4685 4.18957 22 8.65471 22C11.3357 22 14.3742 22 16.6746 21.4012C19.1264 20.7629 20.2683 19.583 20.2683 17.6878C20.2683 14.505 14.0121 13.3756 8.65471 13.3756Z" fill="white"/>
<path d="M6.67051 3.71168C7.29514 4.17562 8.32493 4.4208 9.6485 4.4208C13.2837 4.4208 16.0643 4.25803 16.0643 2.21044C16.0643 1.52672 15.4252 0.975477 14.1647 0.572C13.0123 0.203156 11.4084 0 9.64846 0C8.32489 0 7.2951 0.245223 6.67046 0.709113C6.18148 1.07224 5.93359 1.57734 5.93359 2.2104C5.93359 2.84346 6.18152 3.34855 6.67051 3.71168Z" fill="white"/>
<path d="M17.0202 11.1741C17.7469 10.6345 18.1153 9.88543 18.1153 8.94776C18.1153 8.0101 17.7469 7.26098 17.0202 6.72138C16.1183 6.05154 14.71 5.71191 12.8346 5.71191C10.7442 5.71191 8.37494 5.71191 6.59152 6.17619C4.71817 6.66384 3.88281 7.51862 3.88281 8.9478C3.88281 9.9892 4.80565 10.8126 6.62559 11.3952C8.21411 11.9036 10.4192 12.1837 12.8346 12.1837C14.71 12.1836 16.1183 11.8439 17.0202 11.1741Z" fill="white"/>
</svg>
