<svg width="20" height="20" viewBox="0 0 20 20" fill="none" xmlns="http://www.w3.org/2000/svg">
<path d="M9.06215 1.53451C9.38431 0.663887 10.6157 0.663887 10.9379 1.53451L12.8114 6.59776C12.9127 6.87148 13.1285 7.08729 13.4022 7.18857L18.4655 9.06215C19.3361 9.38431 19.3361 10.6157 18.4655 10.9379L13.4022 12.8114C13.1285 12.9127 12.9127 13.1285 12.8114 13.4022L10.9379 18.4655C10.6157 19.3361 9.38431 19.3361 9.06215 18.4655L7.18857 13.4022C7.08729 13.1285 6.87148 12.9127 6.59776 12.8114L1.53451 10.9379C0.663887 10.6157 0.663887 9.38431 1.53451 9.06215L6.59776 7.18857C6.87148 7.08729 7.08729 6.87148 7.18857 6.59776L9.06215 1.53451Z" fill="#1F2B20"/>
</svg>
