<svg width="24" height="36" viewBox="0 0 24 36" fill="none" xmlns="http://www.w3.org/2000/svg">
<path d="M7 0H24V28.5681C24 30.2903 21.9682 31.2072 20.6768 30.0677L16.8232 26.6676C16.0672 26.0005 14.9328 26.0005 14.1768 26.6676L10.3232 30.0677C9.03185 31.2072 7 30.2903 7 28.5681V0Z" fill="#EE6531"/>
<path d="M11.8 18L11.08 17.28L19.012 9.36L19.732 10.08L11.8 18ZM17.932 18.18C17.536 18.18 17.174 18.084 16.846 17.892C16.522 17.696 16.262 17.436 16.066 17.112C15.87 16.784 15.772 16.42 15.772 16.02C15.772 15.628 15.872 15.268 16.072 14.94C16.272 14.612 16.536 14.35 16.864 14.154C17.192 13.958 17.548 13.86 17.932 13.86C18.328 13.86 18.69 13.958 19.018 14.154C19.346 14.346 19.606 14.606 19.798 14.934C19.994 15.258 20.092 15.62 20.092 16.02C20.092 16.42 19.994 16.784 19.798 17.112C19.606 17.436 19.346 17.696 19.018 17.892C18.69 18.084 18.328 18.18 17.932 18.18ZM17.932 17.238C18.152 17.238 18.354 17.182 18.538 17.07C18.726 16.958 18.874 16.81 18.982 16.626C19.094 16.442 19.15 16.24 19.15 16.02C19.15 15.8 19.094 15.598 18.982 15.414C18.874 15.226 18.726 15.078 18.538 14.97C18.354 14.858 18.152 14.802 17.932 14.802C17.712 14.802 17.51 14.858 17.326 14.97C17.142 15.078 16.994 15.226 16.882 15.414C16.77 15.598 16.714 15.8 16.714 16.02C16.714 16.24 16.77 16.442 16.882 16.626C16.994 16.81 17.142 16.958 17.326 17.07C17.51 17.182 17.712 17.238 17.932 17.238ZM12.88 13.5C12.484 13.5 12.122 13.404 11.794 13.212C11.466 13.016 11.204 12.756 11.008 12.432C10.816 12.104 10.72 11.74 10.72 11.34C10.72 10.948 10.82 10.588 11.02 10.26C11.22 9.932 11.484 9.67 11.812 9.474C12.14 9.278 12.496 9.18 12.88 9.18C13.276 9.18 13.636 9.278 13.96 9.474C14.288 9.666 14.55 9.926 14.746 10.254C14.942 10.578 15.04 10.94 15.04 11.34C15.04 11.74 14.942 12.104 14.746 12.432C14.55 12.756 14.288 13.016 13.96 13.212C13.636 13.404 13.276 13.5 12.88 13.5ZM12.88 12.558C13.1 12.558 13.302 12.502 13.486 12.39C13.674 12.278 13.822 12.13 13.93 11.946C14.042 11.762 14.098 11.56 14.098 11.34C14.098 11.12 14.042 10.918 13.93 10.734C13.822 10.546 13.674 10.398 13.486 10.29C13.302 10.178 13.1 10.122 12.88 10.122C12.66 10.122 12.458 10.178 12.274 10.29C12.09 10.398 11.942 10.546 11.83 10.734C11.718 10.918 11.662 11.12 11.662 11.34C11.662 11.56 11.718 11.762 11.83 11.946C11.942 12.13 12.09 12.278 12.274 12.39C12.458 12.502 12.66 12.558 12.88 12.558Z" fill="white"/>
</svg>
