<svg width="22" height="22" viewBox="0 0 22 22" fill="none" xmlns="http://www.w3.org/2000/svg">
<g clip-path="url(#clip0_4158_513)">
<path d="M10.9996 2.43589C11.738 1.56865 12.687 0.92051 13.7415 0.547412C13.1031 -0.090932 12.0903 -0.186967 11.3404 0.34374L10.9996 0.585224L10.6589 0.34374C9.91 -0.186237 8.8971 -0.0918773 8.25781 0.547412C9.31248 0.920595 10.2614 1.56878 10.9996 2.43589Z" fill="#1F2B20"/>
<path d="M20.6259 15.1679H18.6351C15.8113 15.1679 13.1875 16.5941 11.6454 18.9277V11.604C14.1618 11.2861 16.1142 9.13255 16.1142 6.53122V2.06247C16.1142 1.63794 15.7099 1.32891 15.2999 1.44071L14.5252 1.65212C12.8382 2.11232 11.5221 3.40825 11.0009 5.03118C10.4797 3.40825 9.16354 2.11232 7.47658 1.65212L6.70186 1.44071C6.29224 1.329 5.8876 1.63755 5.8876 2.06247V6.53122C5.8876 9.13255 7.83993 11.2861 10.3563 11.604V18.9277C8.81424 16.5941 6.19049 15.1679 3.36662 15.1679H1.37588C0.885609 15.1679 0.572968 15.6966 0.812991 16.1266L1.69385 17.7048C3.17241 20.3543 5.97612 22 9.01014 22H12.9916C16.0256 22 18.8294 20.3543 20.3079 17.7048L21.1888 16.1266C21.4287 15.6968 21.1164 15.1679 20.6259 15.1679Z" fill="#1F2B20"/>
</g>
<defs>
<clipPath id="clip0_4158_513">
<rect width="22" height="22" fill="white"/>
</clipPath>
</defs>
</svg>
