<svg width="22" height="22" viewBox="0 0 22 22" fill="none" xmlns="http://www.w3.org/2000/svg">
<g clip-path="url(#clip0_3953_24680)">
<path d="M12.481 12.7184C12.481 10.8475 10.9644 9.33081 9.09348 9.33081C7.89616 9.33081 6.84394 9.95201 6.24143 10.8897C5.63896 9.95201 4.58675 9.33081 3.38938 9.33081C1.51848 9.33081 0.00180789 10.8475 0.00180789 12.7184C0.00180789 12.7184 -0.281399 16.4176 6.24143 20.6517C12.7643 16.4176 12.481 12.7184 12.481 12.7184Z" fill="#1F2B20"/>
<path d="M21.9993 6.08824C21.9993 3.47037 19.8771 1.34814 17.2592 1.34814C15.5838 1.34814 14.1115 2.21736 13.2685 3.52941C12.4255 2.21736 10.9532 1.34814 9.27777 1.34814C6.6599 1.34814 4.53767 3.47037 4.53767 6.08824C4.53767 6.08824 4.47335 6.93052 4.99537 8.32425C5.44401 8.48749 5.86493 8.71789 6.24327 9.00947C7.04821 8.38905 8.04418 8.04173 9.09532 8.04173C10.3445 8.04173 11.5189 8.52818 12.4022 9.41149C13.2771 10.2864 13.7627 11.447 13.7718 12.6829C13.7854 13.009 13.7588 14.1179 12.9565 15.6848C12.797 15.9962 12.6157 16.3074 12.4138 16.6175C12.6891 16.8072 12.9737 16.9977 13.2685 17.1891C22.3956 11.2645 21.9993 6.08824 21.9993 6.08824Z" fill="#1F2B20"/>
</g>
<defs>
<clipPath id="clip0_3953_24680">
<rect width="22" height="22" fill="white"/>
</clipPath>
</defs>
</svg>
