<svg width="22" height="22" viewBox="0 0 22 22" fill="none" xmlns="http://www.w3.org/2000/svg">
<g clip-path="url(#clip0_4008_4815)">
<path d="M7.66758 0.243652C6.22464 0.243652 5.05078 1.41752 5.05078 2.86041C5.05078 4.30334 6.22464 5.4772 7.66758 5.4772C9.11047 5.4772 10.2843 4.30334 10.2843 2.86041C10.2843 1.41752 9.11047 0.243652 7.66758 0.243652Z" fill="#1F2B20"/>
<path d="M19.3824 14.4351C17.9395 14.4351 16.7656 15.6089 16.7656 17.0519C16.7656 18.4947 17.9395 19.6686 19.3824 19.6686C20.8253 19.6686 21.9992 18.4947 21.9992 17.0519C21.9992 15.6089 20.8253 14.4351 19.3824 14.4351Z" fill="#1F2B20"/>
<path d="M15.1174 14.9584C14.9056 14.7702 14.6682 14.618 14.4152 14.5031C14.4205 14.4455 14.4241 14.3876 14.4241 14.3296C14.4241 13.2888 13.5774 12.442 12.5365 12.442C11.4956 12.442 10.6488 13.2888 10.6488 14.3296C10.6488 14.4001 10.6529 14.4697 10.6604 14.5387L6.24568 15.0607L7.32823 12.1268L8.02244 13.2398C8.28399 13.6591 8.7352 13.9095 9.22943 13.9095C9.69405 13.9095 10.1301 13.682 10.396 13.301C10.6619 12.92 10.7248 12.4321 10.5646 11.9961L8.47137 6.30298H5.60716L1.62306 15.6254C0.680969 15.8615 0 16.7123 0 17.7066C0 18.8899 0.962758 19.8527 2.14616 19.8527H13.2568C14.8011 19.8527 16.0576 18.5963 16.0576 17.0519C16.0576 16.2525 15.7149 15.4894 15.1174 14.9584Z" fill="#1F2B20"/>
<path d="M21.2644 20.4673H0.644531V21.7563H21.2644V20.4673Z" fill="#1F2B20"/>
<path d="M11.9375 10.3023C11.9375 10.2542 11.9375 10.2542 11.9831 10.1795C12.0709 10.0359 12.2177 9.79544 12.2177 9.38479C12.2177 8.97414 12.0709 8.73377 11.9831 8.59013C11.9375 8.51549 11.9375 8.51549 11.9375 8.46741H10.6484C10.6484 8.8781 10.7953 9.11847 10.883 9.26211C10.9287 9.33675 10.9287 9.33675 10.9287 9.38479C10.9287 9.43291 10.9287 9.43292 10.883 9.50755C10.7953 9.65124 10.6484 9.89165 10.6484 10.3023C10.6484 10.713 10.7953 10.9534 10.883 11.0971C10.9287 11.1717 10.9287 11.1717 10.9287 11.2198H12.2177C12.2177 10.8092 12.0709 10.5688 11.9831 10.4251C11.9375 10.3504 11.9375 10.3504 11.9375 10.3023Z" fill="#1F2B20"/>
<path d="M14.1445 10.3023C14.1445 10.2542 14.1445 10.2542 14.1902 10.1795C14.2779 10.0358 14.4247 9.79544 14.4247 9.38479C14.4247 8.97418 14.2779 8.73381 14.1902 8.59017C14.1445 8.51549 14.1445 8.51549 14.1445 8.46741H12.8555C12.8555 8.87806 13.0023 9.11843 13.09 9.26211C13.1357 9.33675 13.1357 9.33675 13.1357 9.38479C13.1357 9.43291 13.1357 9.43291 13.09 9.50759C13.0023 9.65128 12.8555 9.89165 12.8555 10.3023C12.8555 10.713 13.0023 10.9533 13.09 11.097C13.1357 11.1717 13.1357 11.1717 13.1357 11.2198H14.4247C14.4247 10.8092 14.2779 10.5688 14.1902 10.4251C14.1445 10.3504 14.1445 10.3504 14.1445 10.3023Z" fill="#1F2B20"/>
</g>
<defs>
<clipPath id="clip0_4008_4815">
<rect width="22" height="22" fill="white"/>
</clipPath>
</defs>
</svg>
